<mxfile host="app.diagrams.net" modified="2021-05-25T10:53:34.321Z" agent="5.0 (Windows NT 10.0; Win64; x64) AppleWebKit/537.36 (KHTML, like Gecko) Chrome/90.0.4430.93 Safari/537.36 OPR/76.0.4017.123" etag="WT0PP6LbuBqG0QRSRO_e" version="14.6.13" type="github">
  <diagram id="kgpKYQtTHZ0yAKxKKP6v" name="Page-1">
    <mxGraphModel dx="1566" dy="654" grid="1" gridSize="10" guides="1" tooltips="1" connect="1" arrows="1" fold="1" page="1" pageScale="1" pageWidth="850" pageHeight="1100" math="0" shadow="0">
      <root>
        <mxCell id="0" />
        <mxCell id="1" parent="0" />
        <mxCell id="x0ro4y0xWhh0hTtDura5-3" value="Fast foreward button click" style="edgeStyle=orthogonalEdgeStyle;rounded=0;orthogonalLoop=1;jettySize=auto;html=1;entryX=0;entryY=0.5;entryDx=0;entryDy=0;" edge="1" parent="1" source="x0ro4y0xWhh0hTtDura5-1" target="x0ro4y0xWhh0hTtDura5-2">
          <mxGeometry relative="1" as="geometry" />
        </mxCell>
        <mxCell id="x0ro4y0xWhh0hTtDura5-1" value="State:Playing" style="ellipse;whiteSpace=wrap;html=1;" vertex="1" parent="1">
          <mxGeometry x="270" y="400" width="120" height="80" as="geometry" />
        </mxCell>
        <mxCell id="x0ro4y0xWhh0hTtDura5-6" style="edgeStyle=orthogonalEdgeStyle;rounded=0;orthogonalLoop=1;jettySize=auto;html=1;entryX=0.5;entryY=1;entryDx=0;entryDy=0;" edge="1" parent="1" source="x0ro4y0xWhh0hTtDura5-2" target="x0ro4y0xWhh0hTtDura5-1">
          <mxGeometry relative="1" as="geometry">
            <mxPoint x="640" y="655.8333129882812" as="targetPoint" />
            <Array as="points">
              <mxPoint x="640" y="656" />
              <mxPoint x="330" y="656" />
            </Array>
          </mxGeometry>
        </mxCell>
        <mxCell id="x0ro4y0xWhh0hTtDura5-7" value="Play button click" style="edgeLabel;html=1;align=center;verticalAlign=middle;resizable=0;points=[];" vertex="1" connectable="0" parent="x0ro4y0xWhh0hTtDura5-6">
          <mxGeometry x="-0.0358" y="-3" relative="1" as="geometry">
            <mxPoint as="offset" />
          </mxGeometry>
        </mxCell>
        <mxCell id="x0ro4y0xWhh0hTtDura5-2" value="State:Fast play" style="ellipse;whiteSpace=wrap;html=1;" vertex="1" parent="1">
          <mxGeometry x="580" y="400" width="120" height="80" as="geometry" />
        </mxCell>
      </root>
    </mxGraphModel>
  </diagram>
</mxfile>
